<?xml version="1.0" encoding="UTF-8"?>
<!-- Generator: Adobe Illustrator 26.1.0, SVG Export Plug-In . SVG Version: 6.00 Build 0)  -->
<svg xmlns="http://www.w3.org/2000/svg" xmlns:xlink="http://www.w3.org/1999/xlink" version="1.1" id="Layer_1" x="0px" y="0px" width="641.857px" height="308.722px" viewBox="0 0 641.857 308.722" xml:space="preserve">
<path id="_x23_000000" d="M476.428,242.798c1.05-3.187,1.72-6.814,1.72-10.836c0-5.551-1.173-10.304-2.909-14.297l2.157,0.814  c0.426,0.168,10.429,4.225,10.429,13.482C487.824,237.366,484.002,240.989,476.428,242.798z M263.179,90.389  c-1.46-9.021,0.963-15.254,1.353-16.176l6.725-15.927l6.676,15.947c2.027,4.84,7.775,10.301,15.899,15.278l0.38-0.346  c-0.377-3.65-0.424-7.1-0.24-10.303c-4.28-7.858-5.08-17.139-1.943-25.605c3.414-9.211,10.914-16.227,20.21-18.985l0.75-1.295  l0.041,1.068c2.195-0.587,4.483-0.941,6.837-1.03c12.719,0.484,23.531,8.619,27.838,20.242c3.923,10.587,1.691,22.448-5.805,31.207  c3.958,5.025,8.652,9.266,13.662,13.786c2.128,1.92,4.297,3.882,6.452,5.945l3.621,3.3c16.403-17.997,21.404-43.179,13.052-65.719  C369.651,17.4,346.182,1.001,319.867,0c-26.315,1.002-49.785,17.4-58.819,41.777c-5.942,16.034-5.12,33.403,1.751,48.574  C262.926,90.364,263.052,90.375,263.179,90.389z M499.977,207.666c0-14.627,0-39.748,0-50.317c0-2.442,0-5.664,0-9.351  c-5.686,2.095-8.937,4.128-9.012,4.176l-3.658,2.34l-3.821-2.095c-10.041-5.588-18.916-6.883-27.13-3.96  c-8.353,2.973-15.287,10.008-20.947,18.215c0,16.411,0,41.052,0,46.723c0,1.305-0.018,2.513-0.051,3.653  c2.06,1.402,3.777,2.43,5.109,3.044c2.117,0.975,4.498,1.277,6.357,0.407c7.912-3.705,3.077-25.572,3.077-25.572  s13.216,7.49,15.808,9.776l14.162-0.274C480.476,204.418,489.578,204.313,499.977,207.666z M411.628,198.517  c0.142-0.358,0.282-0.71,0.418-1.049c8.412-21.111,29.948-76.462,74.975-51.399c0,0,19.54-12.744,48.638-9.345  c0,0-24.49-33.339-73.267-16.151c-1.026,0.362-1.982-0.663-1.562-1.667c1.193-2.847,4.093-7.441,10.898-10.218  c0,0-12.178,0-35.777,20.777c-1.292,1.137-3.328,0.184-3.273-1.537c0.095-2.953,1.016-6.949,4.642-10.107  c0,0-23.363,10.407-33.771,41.629c0,0,30.797-31.859,64.356-28.673c0,0-40.263,0.207-76.462,51.612  c-0.254,0.36-0.518,0.739-0.787,1.126c2.82,0.992,5.472,2.462,7.816,4.363C402.052,190.78,406.807,194.631,411.628,198.517z   M523.978,249.811c0-38.963-43.966-38.113-43.966-38.113s15.08,5.694,15.08,20.263s-14.655,19.454-32.709,19.454  c0,0,8.496-6.412,8.496-19.454c0-16.865-13.593-24.511-13.593-24.511s3.511,15.605-7.925,19.862  c-3.873,1.442-8.18,1.112-11.934-0.617c-2.99-1.377-7.08-4.081-12.532-8.307c-6.837-5.301-22.732-18.158-31.002-24.867  c-3.378-2.74-7.591-4.231-11.94-4.231h-5.15c-4.713,0-8.603-3.687-8.855-8.393l-0.179-3.339c-0.283-5.27-4.664-9.356-9.941-9.324  c-3.237,0.019-6.846-0.216-10.032-1.033c-8.283-2.124-10.089-12-10.089-12s-3.823,12.531,5.097,18.266  c8.921,5.735,13.381,13.806,13.169,19.116s0,11.682,11.469,20.602c11.469,8.921,37.169,25.912,37.169,38.868  c0,12.956-8.921,37.169,21.664,50.338c0,0-12.956-15.08,0-31.647c0,0,3.611,30.585,29.948,36.744  c26.337,6.159,49.488-12.744,49.488-12.744s-22.089,1.062-28.673-7.646C477.039,287.098,523.978,287.098,523.978,249.811z   M249.776,97.855c4.885-2.124,24.001,1.487,24.001,1.487c-6.584-12.744-2.549-22.301-2.549-22.301  c3.823,9.133,15.292,17.416,26.974,23.151c11.682,5.735,20.602,16.992,20.602,16.992c-3.398-11.894-15.93-20.602-15.93-20.602  c-5.522-22.089,3.823-38.231,3.823-38.231c0.829,21.374,11.469,31.647,24.638,42.479c13.169,10.832,24.638,25.063,24.638,25.063  c-3.216-10.832-23.021-30.161-30.934-37.567c-2.402-2.248-3.845-5.344-3.998-8.63c-0.457-9.827,3.497-16.672,3.497-16.672  c5.31,27.399,22.939,35.895,36.957,50.975c14.018,15.08,12.107,31.222,12.107,31.222c6.797,2.124,5.735,8.708,5.735,8.708  c7.646-2.124,10.195-9.133,10.195-9.133c2.336,24.425-15.292,35.045-15.292,35.045s4.248-19.753-23.788-17.841l6.159-12.531  c0,0-18.054-3.823-39.718,2.124l13.168,2.336c0,0-9.133,23.788,3.398,15.717c0,0-6.159,18.054,7.434,15.292  c0,0-4.248,13.168-25.7,14.655c0,0,9.133-6.372,9.133-11.044c0,0-5.947,2.124-11.257,1.274c0,0,14.329-10.26,4.036-25.7  c-8.921-13.381-29.523-1.487-29.523-1.487s5.522-14.23,20.39-21.239c0,0-9.983-3.823-15.292-3.611c0,0,10.648-7.835,25.886-7.874  c0.716-0.002,1.301-0.569,1.301-1.285c0-0.704-0.561-1.277-1.265-1.285c-5.183-0.061-25.203,0.602-39.515,13.63l13.381,3.186  c-12.604,1.238-36.744,19.328-36.744,19.328s4.673-16.354-1.487-21.664c-6.159-5.31-24.213-3.398-24.213-3.398  c18.532-10.064,28.043-14.97,33.581-20.887c1.453-1.553,1.81-3.796,0.95-5.741C261.115,104.01,249.776,97.855,249.776,97.855z   M339.887,126.972c0.49,1.981,4.346,15.944,15.195,13.532c0.133-0.03,0.146-0.22,0.014-0.256c-0.972-0.268-2.861-1.316-4.645-5.33  c-2.294-5.162-9.064-7.657-10.392-8.103C339.958,126.78,339.861,126.868,339.887,126.972z M502.101,39.871  c-58.621,0-84.108,2.549-109.596-14.443c15.859,60.462,42.904,40.638,42.904,75.872c0,1.664,0,4.964,0,9.207  c10.521-6.435,36.958-13.571,36.958-13.571l-6.169,5.373c2.91-0.786,4.758-0.891,5.53-0.891h28.248c0-3.403,0-5.475,0-5.475h27.824  c29.912,0,54.161,24.249,54.161,54.161c0,0,0,5.434,0,7.245s0,7.245,0,7.245c0,29.912-24.249,54.161-54.161,54.161h-8.688  c0.022,0.021,0.045,0.041,0.067,0.063c8.007,7.854,12.066,18.282,12.066,30.994c0,9.265-2.585,17.433-7.501,24.172  c65.231-5.246,118.112-35.958,118.112-116.634C641.857,67.907,576.864,39.871,502.101,39.871z M388.566,239.374  c-5.953-5.753-13.604-11.46-19.753-16.046c-0.899-0.671-1.77-1.321-2.614-1.955c-0.382,0.624-0.75,1.227-1.094,1.794  c-9.671,15.955-39.718,58.833-75.4,27.399c-32.917-28.998,16.779-83.896,16.779-83.896s-7.859-0.779-11.257,0.425  c-5.381,3.611-17.841,12.319-17.841,12.319l4.036-22.915c-13.602,5.344-35.258,30.136-35.258,30.136  c-1.699-10.195,3.611-39.081,3.611-39.081c-27.187,16.567-31.222,48.851-31.222,48.851s2.442-4.558,8.609-6.976  c1.143-0.448,2.3,0.637,1.916,1.803c-3.943,11.95-17.384,61.155,15.813,94.166c0,0-0.87-5.219-1.045-10.768  c-0.078-2.467,3.07-3.574,4.561-1.606c7.989,10.547,27.465,31.064,58.078,31.064c41.205,0,70.983-24.55,86.02-58.409  c0.203-0.458,0.415-0.939,0.63-1.432C391.964,242.835,390.473,241.217,388.566,239.374z M215.789,230.538  c0.067,4.039,0.348,7.96,0.834,11.766c-26.043,23.659-64.991,32.523-107.028,32.523c-58.621,0-84.108-2.549-109.596,14.443  c15.859-60.462,42.904-40.638,42.904-75.872c0-6.915,0-42.036,0-56.049s0-49.134,0-56.049c0-35.234-27.045-15.41-42.904-75.872  C25.487,42.42,50.975,39.871,109.596,39.871c63.813,0,120.498,20.435,135.737,82.035c-13.221,8.614-32.301,20.34-32.301,20.34  s24.072,3.025,27.029,3.168c-24.537,18.813-28.582,48.73-28.719,50.091c-0.866,8.614-2.629,34.531-2.629,34.531l7.525-11.782  C215.897,222.155,215.719,226.279,215.789,230.538z M189.456,150.104c0-29.912-24.249-54.161-54.161-54.161h-27.824  c0,0,0,46.054,0,61.406s0,61.406,0,61.406h27.824c29.912,0,54.161-24.249,54.161-54.161c0,0,0-5.434,0-7.245  S189.456,150.104,189.456,150.104z"></path>
<g>
</g>
<g>
</g>
<g>
</g>
<g>
</g>
<g>
</g>
</svg>
