 <svg  version="1.0" xmlns="http://www.w3.org/2000/svg"  width="300.000000pt" height="300.000000pt" viewBox="0 0 300.000000 300.000000"  preserveAspectRatio="xMidYMid meet">  <g transform="translate(0.000000,300.000000) scale(0.100000,-0.100000)" fill="#ffffff" stroke="none"> <path d="M1230 2975 c-139 -26 -254 -65 -395 -135 -298 -148 -520 -367 -670 -662 -97 -192 -156 -409 -154 -567 l1 -66 18 70 c9 39 25 110 34 159 33 175 122 392 219 536 131 194 328 373 530 480 155 82 260 117 465 155 73 14 141 29 150 35 26 14 -107 11 -198 -5z"/> <path d="M1571 2980 c15 -9 120 -32 209 -46 80 -12 233 -62 335 -109 156 -73 284 -163 416 -294 222 -222 345 -458 410 -787 38 -196 48 -221 48 -133 2 157 -53 361 -149 554 -78 157 -163 277 -281 394 -213 214 -504 366 -793 416 -100 17 -221 20 -195 5z"/> <path d="M1255 2710 c-278 -56 -523 -204 -706 -427 -81 -98 -117 -155 -170 -268 -78 -170 -110 -318 -110 -515 1 -343 120 -631 365 -876 84 -83 231 -192 308 -228 72 -33 192 -77 265 -97 113 -30 395 -39 514 -15 322 65 597 240 784 501 99 137 185 342 215 514 15 85 15 287 1 390 -25 171 -123 407 -224 541 -195 255 -480 434 -775 485 -119 21 -352 18 -467 -5z m432 -25 c127 -21 240 -58 357 -118 527 -270 781 -885 595 -1441 -235 -701 -1029 -1028 -1683 -693 -343 175 -579 500 -641 880 -82 504 177 1015 633 1250 230 119 490 162 739 122z"/> <path d="M1202 1352 l298 -297 298 297 298 298 -596 0 -596 0 298 -298z m716 261 c42 -3 72 -9 72 -15 0 -15 -476 -488 -491 -488 -16 0 -489 475 -489 492 0 11 79 13 418 14 229 1 450 -1 490 -3z"/> <path d="M11 1384 c-2 -154 58 -373 154 -562 150 -295 372 -514 670 -662 190 -94 396 -150 549 -150 90 1 43 20 -111 45 -476 78 -882 382 -1093 820 -58 119 -93 231 -125 397 -31 163 -44 194 -44 112z"/> <path d="M2973 1405 c-7 -22 -19 -80 -28 -130 -61 -333 -189 -582 -414 -806 -234 -232 -488 -360 -836 -420 -38 -7 -86 -18 -105 -25 l-35 -13 61 0 c154 -2 373 58 562 154 295 150 514 372 662 670 96 194 155 414 148 552 l-3 58 -12 -40z"/> </g> </svg> 